<?xml version="1.0" encoding="utf-8"?><svg viewBox="0 0 42 46" xmlns="http://www.w3.org/2000/svg" xmlns:xlink="http://www.w3.org/1999/xlink"><style>:root>svg{display:none}:root>svg:target{display:block}</style><svg fill="none" viewBox="0 0 12 17" id="UAH" xmlns="http://www.w3.org/2000/svg"><path d="M6.38 16.22c-1.144 0-2.112-.154-2.904-.462-.792-.308-1.4-.763-1.826-1.364-.41-.616-.616-1.393-.616-2.332 0-.279.022-.543.066-.792.044-.264.103-.506.176-.726H.242V9.136H2.09c.293-.293.682-.557 1.166-.792.499-.25 1.012-.47 1.54-.66.543-.19 1.02-.352 1.43-.484.41-.147.675-.25.792-.308H.242V5.484h8.404c.117-.205.198-.418.242-.638.059-.22.088-.499.088-.836 0-.455-.103-.843-.308-1.166-.205-.337-.52-.594-.946-.77-.425-.176-.975-.264-1.65-.264-.484 0-.953.044-1.408.132a8.28 8.28 0 0 0-1.254.352c-.381.132-.74.279-1.078.44L1.782.996c.557-.264 1.24-.484 2.046-.66A11.03 11.03 0 0 1 6.182.072c.997 0 1.848.14 2.552.418.719.264 1.269.667 1.65 1.21.396.543.594 1.232.594 2.068 0 .308-.022.616-.066.924a2.634 2.634 0 0 1-.242.792h1.21v1.408H9.966c-.235.235-.601.477-1.1.726-.499.235-1.02.455-1.562.66-.543.205-1.034.381-1.474.528-.44.147-.726.257-.858.33h6.908v1.408H3.322c-.117.22-.198.425-.242.616-.044.19-.066.455-.066.792 0 .572.132 1.049.396 1.43.264.367.66.645 1.188.836.528.19 1.18.286 1.958.286.836 0 1.643-.103 2.42-.308.792-.22 1.452-.447 1.98-.682v1.782c-.499.235-1.166.447-2.002.638-.836.19-1.694.286-2.574.286Z" fill="#9C8A00"/></svg><svg fill="none" viewBox="0 0 40 40" id="instagram-black" xmlns="http://www.w3.org/2000/svg"><path d="M20 0c5.434 0 6.112.02 8.244.12 2.13.1 3.58.434 4.856.93 1.32.508 2.432 1.196 3.544 2.306A9.816 9.816 0 0 1 38.95 6.9c.494 1.274.83 2.726.93 4.856.094 2.132.12 2.81.12 8.244 0 5.434-.02 6.112-.12 8.244-.1 2.13-.436 3.58-.93 4.856a9.766 9.766 0 0 1-2.306 3.544A9.83 9.83 0 0 1 33.1 38.95c-1.274.494-2.726.83-4.856.93-2.132.094-2.81.12-8.244.12-5.434 0-6.112-.02-8.244-.12-2.13-.1-3.58-.436-4.856-.93a9.78 9.78 0 0 1-3.544-2.306A9.808 9.808 0 0 1 1.05 33.1c-.496-1.274-.83-2.726-.93-4.856C.026 26.112 0 25.434 0 20c0-5.434.02-6.112.12-8.244.1-2.132.434-3.58.93-4.856a9.76 9.76 0 0 1 2.306-3.544A9.794 9.794 0 0 1 6.9 1.05C8.176.554 9.624.22 11.756.12 13.888.026 14.566 0 20 0Zm0 10a10 10 0 1 0 0 20 10 10 0 0 0 0-20Zm13-.5a2.5 2.5 0 1 0-5 0 2.5 2.5 0 0 0 5 0ZM20 14a6 6 0 1 1 0 12 6 6 0 0 1 0-12Z" fill="#070506"/></svg><svg fill="none" viewBox="0 0 40 40" id="instagram-white" xmlns="http://www.w3.org/2000/svg"><path d="M20 0c5.434 0 6.112.02 8.244.12 2.13.1 3.58.434 4.856.93 1.32.508 2.432 1.196 3.544 2.306A9.816 9.816 0 0 1 38.95 6.9c.494 1.274.83 2.726.93 4.856.094 2.132.12 2.81.12 8.244 0 5.434-.02 6.112-.12 8.244-.1 2.13-.436 3.58-.93 4.856a9.766 9.766 0 0 1-2.306 3.544A9.83 9.83 0 0 1 33.1 38.95c-1.274.494-2.726.83-4.856.93-2.132.094-2.81.12-8.244.12-5.434 0-6.112-.02-8.244-.12-2.13-.1-3.58-.436-4.856-.93a9.78 9.78 0 0 1-3.544-2.306A9.808 9.808 0 0 1 1.05 33.1c-.496-1.274-.83-2.726-.93-4.856C.026 26.112 0 25.434 0 20c0-5.434.02-6.112.12-8.244.1-2.132.434-3.58.93-4.856a9.76 9.76 0 0 1 2.306-3.544A9.794 9.794 0 0 1 6.9 1.05C8.176.554 9.624.22 11.756.12 13.888.026 14.566 0 20 0Zm0 10a10 10 0 1 0 0 20 10 10 0 0 0 0-20Zm13-.5a2.5 2.5 0 1 0-5 0 2.5 2.5 0 0 0 5 0ZM20 14a6 6 0 1 1 0 12 6 6 0 0 1 0-12Z" fill="#fff"/></svg><svg fill="none" viewBox="0 0 42 42" id="telegram-black" xmlns="http://www.w3.org/2000/svg"><path d="M21 42C9.402 42 0 32.598 0 21S9.402 0 21 0s21 9.402 21 21-9.402 21-21 21Zm-6.531-18.543.027-.015 1.827 6.027c.235.653.559.771.952.716.394-.052.602-.264.86-.512l2.495-2.41 5.355 3.964c.979.54 1.683.26 1.926-.907l3.48-16.426c.384-1.53-.288-2.142-1.474-1.655l-20.44 7.896c-1.394.558-1.386 1.34-.252 1.686l5.244 1.638v-.002Z" fill="#070506"/></svg><svg fill="none" viewBox="0 0 42 42" id="telegram-white" xmlns="http://www.w3.org/2000/svg"><path d="M21 42C9.402 42 0 32.598 0 21S9.402 0 21 0s21 9.402 21 21-9.402 21-21 21Zm-6.531-18.543.027-.015 1.827 6.027c.235.653.559.771.952.716.394-.052.602-.264.86-.512l2.495-2.41 5.355 3.964c.979.54 1.683.26 1.926-.907l3.48-16.426c.384-1.53-.288-2.142-1.474-1.655l-20.44 7.896c-1.394.558-1.386 1.34-.252 1.686l5.244 1.638v-.002Z" fill="#fff"/></svg><svg fill="none" viewBox="0 0 40 46" id="viber-black" xmlns="http://www.w3.org/2000/svg"><path fill-rule="evenodd" clip-rule="evenodd" d="M35.637 3.897C34.594 2.94 30.09.081 20.697.04c0 0-11.124-.739-16.524 4.205C1.168 7.243.156 11.703.045 17.145l-.013.558C-.093 23.27-.314 33.076 9.208 35.75c0 0-.038 7.719-.043 8.397 0 .474.075.799.343.866.193.047.482-.053.728-.301 1.575-1.599 6.617-7.747 6.617-7.747 6.766.447 12.148-.903 12.727-1.095.137-.044.333-.09.577-.148 2.201-.518 8.296-1.954 9.42-11.136 1.291-10.513-.474-17.69-3.94-20.689Zm-14.545 8.845a.63.63 0 0 1 .66-.6c1.296.068 2.374.464 3.142 1.267.765.8 1.14 1.916 1.206 3.257a.632.632 0 0 1-.597.665.63.63 0 0 1-.658-.602c-.056-1.148-.368-1.93-.854-2.438-.483-.505-1.22-.825-2.305-.882a.632.632 0 0 1-.594-.667Zm-.281-4.007a.63.63 0 0 0-.673.587.633.633 0 0 0 .581.68c2.391.176 4.187.985 5.472 2.402 1.289 1.423 1.921 3.197 1.875 5.37-.008.351.267.642.614.65a.631.631 0 0 0 .641-.622c.053-2.464-.674-4.566-2.203-6.255-1.547-1.706-3.67-2.617-6.307-2.812Zm-1.78-2.664a.631.631 0 0 1 .633-.63c3.644.026 6.725 1.252 9.199 3.69 2.494 2.457 3.728 5.802 3.759 9.957a.632.632 0 0 1-.623.64.631.631 0 0 1-.633-.63c-.03-3.894-1.176-6.887-3.38-9.059-2.225-2.192-4.988-3.305-8.331-3.328a.632.632 0 0 1-.624-.64Zm4.171 18.613c-.475.591-1.358.516-1.358.516-6.453-1.665-8.18-8.27-8.18-8.27s-.077-.893.511-1.373l1.166-.937c.578-.45.947-1.543.359-2.61-.452-.8-.943-1.578-1.471-2.33-.513-.708-1.71-2.159-1.714-2.163-.576-.688-1.424-.847-2.318-.377a.037.037 0 0 0-.01.003.034.034 0 0 1-.009.002 9.672 9.672 0 0 0-2.382 1.958l-.006.008c-.553.673-.869 1.334-.949 1.98a1.283 1.283 0 0 0-.017.29c-.003.286.04.57.128.842l.03.02c.279 1 .976 2.666 2.491 5.443a32.463 32.463 0 0 0 2.989 4.572 23.873 23.873 0 0 0 1.873 2.125l.068.07.069.069.068.069a23.782 23.782 0 0 0 2.035 1.824 32.03 32.03 0 0 0 4.524 3.02c2.747 1.531 4.396 2.236 5.384 2.518l.021.03c.269.09.55.133.833.13.096.005.192-.001.286-.018.641-.077 1.294-.396 1.959-.957.004-.002.006-.004.008-.007l.009-.007a9.756 9.756 0 0 0 1.929-2.4c0-.002 0-.005.002-.009a.044.044 0 0 0 .002-.01c.465-.903.307-1.76-.377-2.344l-.15-.125c-.389-.323-1.427-1.188-1.991-1.607a27.279 27.279 0 0 0-2.303-1.486c-1.056-.595-2.135-.222-2.582.362l-.927 1.179Z" fill="#070506"/></svg><svg fill="none" viewBox="0 0 40 46" id="viber-white" xmlns="http://www.w3.org/2000/svg"><path fill-rule="evenodd" clip-rule="evenodd" d="M35.637 3.897C34.594 2.94 30.09.081 20.697.04c0 0-11.124-.739-16.524 4.205C1.168 7.243.156 11.703.045 17.145l-.013.558C-.093 23.27-.314 33.076 9.208 35.75c0 0-.038 7.719-.043 8.397 0 .474.075.799.343.866.193.047.482-.053.728-.301 1.575-1.599 6.617-7.747 6.617-7.747 6.766.447 12.148-.903 12.727-1.095.137-.044.333-.09.577-.148 2.201-.518 8.296-1.954 9.42-11.136 1.291-10.513-.474-17.69-3.94-20.689Zm-14.545 8.845a.63.63 0 0 1 .66-.6c1.296.068 2.374.464 3.142 1.267.765.8 1.14 1.916 1.206 3.257a.632.632 0 0 1-.597.665.63.63 0 0 1-.658-.602c-.056-1.148-.368-1.93-.854-2.438-.483-.505-1.22-.825-2.305-.882a.632.632 0 0 1-.594-.667Zm-.281-4.006a.63.63 0 0 0-.673.586.633.633 0 0 0 .581.68c2.391.177 4.187.986 5.472 2.403 1.289 1.423 1.921 3.197 1.875 5.37-.008.35.267.641.614.649a.631.631 0 0 0 .641-.621c.053-2.465-.674-4.566-2.203-6.255-1.547-1.707-3.67-2.617-6.307-2.812ZM19.03 6.07a.631.631 0 0 1 .633-.63c3.644.026 6.725 1.252 9.199 3.69 2.494 2.457 3.728 5.802 3.759 9.957a.632.632 0 0 1-.623.64.631.631 0 0 1-.633-.63c-.03-3.894-1.176-6.887-3.38-9.059-2.225-2.192-4.988-3.305-8.331-3.328a.632.632 0 0 1-.624-.64Zm4.171 18.612c-.475.592-1.358.517-1.358.517-6.453-1.665-8.18-8.27-8.18-8.27s-.077-.893.511-1.374l1.166-.936c.578-.45.947-1.543.359-2.61-.452-.801-.943-1.579-1.471-2.33-.513-.708-1.71-2.16-1.714-2.164-.576-.687-1.424-.847-2.318-.376a.037.037 0 0 0-.01.002l-.009.002A9.672 9.672 0 0 0 7.79 9.11c-.553.674-.869 1.334-.949 1.981a1.283 1.283 0 0 0-.017.29c-.003.285.04.57.128.841l.03.021c.279 1 .976 2.666 2.491 5.443a32.463 32.463 0 0 0 2.989 4.571c.562.72 1.164 1.406 1.804 2.056l.069.07.068.069.069.07.068.069a23.8 23.8 0 0 0 2.035 1.823 32.037 32.037 0 0 0 4.524 3.02c2.747 1.532 4.396 2.237 5.384 2.518l.021.031c.269.089.55.132.833.13.096.004.192-.002.286-.019.641-.076 1.294-.395 1.959-.957a.026.026 0 0 0 .006-.005l.01-.008a9.758 9.758 0 0 0 1.93-2.4c0-.003 0-.006.002-.01l.002-.01c.465-.903.307-1.76-.377-2.343l-.15-.125c-.389-.323-1.427-1.188-1.991-1.607a27.279 27.279 0 0 0-2.303-1.487c-1.056-.594-2.135-.222-2.582.363l-.927 1.178Z" fill="#fff"/></svg></svg>