<svg width="42" height="42" viewBox="0 0 42 42" fill="none" xmlns="http://www.w3.org/2000/svg">
<path d="M21 42C9.4017 42 0 32.5983 0 21C0 9.4017 9.4017 0 21 0C32.5983 0 42 9.4017 42 21C42 32.5983 32.5983 42 21 42ZM14.469 23.457L14.4963 23.4423L16.3233 29.4693C16.5585 30.1224 16.8819 30.24 17.2746 30.1854C17.6694 30.1329 17.8773 29.9208 18.1356 29.673L20.6304 27.2622L25.9854 31.227C26.964 31.7667 27.6675 31.4874 27.9111 30.3198L31.3908 13.8936C31.7751 12.3648 31.1031 11.7516 29.9166 12.2388L9.4773 20.1348C8.0829 20.6934 8.0913 21.4746 9.2253 21.8211L14.469 23.4591V23.457Z" fill="white"/>
</svg>
