<svg width="12" height="17" viewBox="0 0 12 17" fill="none" xmlns="http://www.w3.org/2000/svg">
<path d="M6.38 16.22C5.236 16.22 4.268 16.066 3.476 15.758C2.684 15.45 2.07533 14.9953 1.65 14.394C1.23933 13.778 1.034 13.0007 1.034 12.062C1.034 11.7833 1.056 11.5193 1.1 11.27C1.144 11.006 1.20267 10.764 1.276 10.544H0.242V9.136H2.09C2.38333 8.84267 2.772 8.57867 3.256 8.344C3.75467 8.09467 4.268 7.87467 4.796 7.684C5.33867 7.49333 5.81533 7.332 6.226 7.2C6.63667 7.05333 6.90067 6.95067 7.018 6.892H0.242V5.484H8.646C8.76333 5.27867 8.844 5.066 8.888 4.846C8.94667 4.626 8.976 4.34733 8.976 4.01C8.976 3.55533 8.87333 3.16667 8.668 2.844C8.46267 2.50667 8.14733 2.25 7.722 2.074C7.29667 1.898 6.74667 1.81 6.072 1.81C5.588 1.81 5.11867 1.854 4.664 1.942C4.224 2.03 3.806 2.14733 3.41 2.294C3.02867 2.426 2.66933 2.57267 2.332 2.734L1.782 0.995999C2.33933 0.731999 3.02133 0.511999 3.828 0.336C4.63467 0.159999 5.41933 0.0719992 6.182 0.0719992C7.17933 0.0719992 8.03 0.211332 8.734 0.489999C9.45267 0.753999 10.0027 1.15733 10.384 1.7C10.78 2.24267 10.978 2.932 10.978 3.768C10.978 4.076 10.956 4.384 10.912 4.692C10.868 4.98533 10.7873 5.24933 10.67 5.484H11.88V6.892H9.966C9.73133 7.12667 9.36467 7.36867 8.866 7.618C8.36733 7.85267 7.84667 8.07267 7.304 8.278C6.76133 8.48333 6.27 8.65933 5.83 8.806C5.39 8.95267 5.104 9.06267 4.972 9.136H11.88V10.544H3.322C3.20467 10.764 3.124 10.9693 3.08 11.16C3.036 11.3507 3.014 11.6147 3.014 11.952C3.014 12.524 3.146 13.0007 3.41 13.382C3.674 13.7487 4.07 14.0273 4.598 14.218C5.126 14.4087 5.77867 14.504 6.556 14.504C7.392 14.504 8.19867 14.4013 8.976 14.196C9.768 13.976 10.428 13.7487 10.956 13.514V15.296C10.4573 15.5307 9.79 15.7433 8.954 15.934C8.118 16.1247 7.26 16.22 6.38 16.22Z" fill="#9C8A00"/>
</svg>
