<svg width="40" height="46" viewBox="0 0 40 46" fill="none" xmlns="http://www.w3.org/2000/svg">
<path fill-rule="evenodd" clip-rule="evenodd" d="M35.6368 3.8973C34.5937 2.93953 30.0915 0.0805196 20.6975 0.0391065C20.6975 0.0391065 9.57346 -0.699552 4.17349 4.24367C1.16805 7.24273 0.15556 11.7025 0.0445505 17.145C0.0408616 17.3258 0.03666 17.5122 0.0323455 17.7035C-0.0931727 23.27 -0.314294 33.0763 9.20839 35.75C9.20839 35.75 9.16965 43.4686 9.16518 44.1471C9.16518 44.6214 9.23968 44.946 9.50789 45.013C9.70086 45.0604 9.98993 44.9595 10.2358 44.7118C11.8108 43.1132 16.8531 36.9653 16.8531 36.9653C23.6187 37.4118 29.0015 36.0617 29.5804 35.8705C29.7167 35.8262 29.9129 35.78 30.157 35.7224L30.1571 35.7224L30.1572 35.7224C32.3585 35.2037 38.4526 33.7677 39.5772 24.5865C40.8684 14.0729 39.1026 6.89636 35.6368 3.8973ZM21.0918 12.7422C21.1098 12.3921 21.4053 12.1231 21.7517 12.1414C23.0477 12.2097 24.1259 12.6062 24.8939 13.4087C25.6589 14.2081 26.0339 15.3248 26.0997 16.666C26.1169 17.0162 25.85 17.3141 25.5035 17.3314C25.1571 17.3488 24.8623 17.0791 24.8451 16.7289C24.7888 15.5808 24.4771 14.7992 23.991 14.2912C23.5078 13.7863 22.7704 13.4663 21.6862 13.4092C21.3398 13.3909 21.0737 13.0923 21.0918 12.7422ZM20.8106 8.73512C20.4647 8.70953 20.1637 8.97222 20.1384 9.32185C20.1131 9.67147 20.373 9.97565 20.719 10.0012C23.1103 10.1781 24.9062 10.987 26.1909 12.4042C27.4796 13.8273 28.112 15.6013 28.0655 17.7749C28.058 18.1253 28.333 18.4156 28.6798 18.4232C29.0266 18.4308 29.3138 18.1528 29.3213 17.8023C29.3741 15.3376 28.6471 13.2363 27.1176 11.5472L27.1174 11.5469C25.571 9.84098 23.4481 8.9302 20.8106 8.73512ZM19.0311 6.07149C19.0335 5.72094 19.3166 5.43874 19.6635 5.44118C23.3083 5.46684 26.3892 6.69316 28.8628 9.13021C31.3571 11.5876 32.5906 14.9332 32.6218 19.0883C32.6245 19.4389 32.3454 19.7252 31.9986 19.7279C31.6517 19.7306 31.3684 19.4486 31.3658 19.098C31.3364 15.2044 30.1903 12.211 27.986 10.0392C25.7609 7.84707 22.9983 6.73418 19.6547 6.71065C19.3079 6.70821 19.0287 6.42205 19.0311 6.07149ZM23.2021 24.6836C22.7267 25.2754 21.8439 25.2001 21.8439 25.2001C15.3912 23.5353 13.6642 16.9295 13.6642 16.9295C13.6642 16.9295 13.5867 16.0373 14.1753 15.5569L15.3413 14.6202C15.9194 14.1699 16.2882 13.0774 15.6996 12.0104C15.2482 11.2095 14.7574 10.432 14.229 9.68074C13.7156 8.9722 12.5199 7.52124 12.5154 7.51672C11.9387 6.82926 11.0909 6.66963 10.1969 7.14024C10.1942 7.14024 10.1904 7.14145 10.1869 7.14263C10.1836 7.14371 10.1804 7.14475 10.1782 7.14475C9.28904 7.66255 8.48725 8.32037 7.80309 9.09343C7.80076 9.09814 7.79843 9.1004 7.7961 9.10265C7.79396 9.10472 7.79182 9.10678 7.78968 9.11075C7.23737 9.7844 6.92123 10.4447 6.84126 11.0918C6.82466 11.1872 6.81891 11.2842 6.82413 11.3809C6.82116 11.6667 6.86418 11.951 6.95153 12.2228L6.98207 12.2438C7.26071 13.2438 7.95806 14.9093 9.47345 17.6863C10.3402 19.2925 11.3399 20.8217 12.4618 22.2575C13.0238 22.9773 13.6263 23.6639 14.2662 24.3139C14.2739 24.3217 14.2816 24.3295 14.2892 24.3373C14.3043 24.3527 14.3194 24.3681 14.3348 24.3831L14.4033 24.4524L14.4718 24.5217L14.5404 24.591C15.1835 25.2377 15.8629 25.8466 16.5751 26.4146C17.9959 27.5486 19.5093 28.559 21.0989 29.4348C23.8458 30.9663 25.4953 31.6711 26.4832 31.9527L26.504 31.9836C26.7729 32.0721 27.0542 32.1158 27.337 32.1131C27.4327 32.1178 27.5287 32.1117 27.6231 32.095C28.2643 32.0182 28.9172 31.6992 29.5818 31.138C29.5857 31.1358 29.5877 31.1337 29.5898 31.1315C29.592 31.1292 29.5942 31.1268 29.5989 31.1244C30.3638 30.4328 31.0149 29.6225 31.5278 28.724C31.5278 28.7218 31.5286 28.7186 31.5295 28.7153C31.5305 28.7117 31.5315 28.7079 31.5315 28.7052C31.9971 27.8016 31.8392 26.9447 31.1553 26.3612C31.1544 26.3612 31.0986 26.3147 31.0041 26.2361C30.6165 25.9133 29.5778 25.0483 29.014 24.6294C28.2714 24.0954 27.5028 23.5993 26.7112 23.143C25.6547 22.5482 24.5759 22.9209 24.1289 23.5052L23.2021 24.6836Z" fill="#070506"/>
</svg>
