<svg width="40" height="46" viewBox="0 0 40 46" fill="none" xmlns="http://www.w3.org/2000/svg">
<path fill-rule="evenodd" clip-rule="evenodd" d="M35.6368 3.8973C34.5937 2.93953 30.0915 0.0805196 20.6975 0.0391065C20.6975 0.0391065 9.57346 -0.699552 4.17349 4.24367C1.16805 7.24273 0.15556 11.7025 0.0445505 17.145C0.0408616 17.3258 0.03666 17.5122 0.0323455 17.7035C-0.0931727 23.27 -0.314294 33.0763 9.20839 35.75C9.20839 35.75 9.16965 43.4686 9.16518 44.1471C9.16518 44.6214 9.23968 44.946 9.50789 45.013C9.70086 45.0604 9.98993 44.9595 10.2358 44.7118C11.8108 43.1132 16.8531 36.9653 16.8531 36.9653C23.6187 37.4118 29.0015 36.0617 29.5804 35.8705C29.7167 35.8262 29.9129 35.78 30.157 35.7224L30.1571 35.7224L30.1572 35.7224C32.3585 35.2037 38.4526 33.7677 39.5772 24.5865C40.8684 14.0729 39.1026 6.89636 35.6368 3.8973ZM21.0918 12.7422C21.1098 12.3921 21.4053 12.1231 21.7517 12.1414C23.0477 12.2097 24.1259 12.6062 24.8939 13.4087C25.6589 14.2081 26.0339 15.3248 26.0997 16.666C26.1169 17.0162 25.85 17.3141 25.5035 17.3314C25.1571 17.3488 24.8623 17.0791 24.8451 16.7289C24.7888 15.5808 24.4771 14.7992 23.991 14.2912C23.5078 13.7863 22.7704 13.4663 21.6862 13.4092C21.3398 13.3909 21.0737 13.0923 21.0918 12.7422ZM20.8106 8.73561C20.4647 8.71002 20.1637 8.97271 20.1384 9.32233C20.1131 9.67196 20.373 9.97613 20.719 10.0017C23.1103 10.1786 24.9062 10.9875 26.1909 12.4047C27.4796 13.8278 28.112 15.6018 28.0655 17.7753C28.058 18.1258 28.333 18.4161 28.6798 18.4237C29.0266 18.4313 29.3138 18.1533 29.3213 17.8028C29.3741 15.3381 28.6471 13.2368 27.1176 11.5477L27.1174 11.5474C25.571 9.84147 23.4481 8.93069 20.8106 8.73561ZM19.0311 6.07149C19.0335 5.72094 19.3166 5.43874 19.6635 5.44118C23.3083 5.46684 26.3892 6.69316 28.8628 9.13021C31.3571 11.5876 32.5906 14.9332 32.6218 19.0883C32.6245 19.4389 32.3454 19.7252 31.9986 19.7279C31.6517 19.7306 31.3684 19.4486 31.3658 19.098C31.3364 15.2044 30.1903 12.211 27.986 10.0392C25.7609 7.84707 22.9983 6.73418 19.6547 6.71065C19.3079 6.70821 19.0287 6.42205 19.0311 6.07149ZM23.2021 24.6831C22.7267 25.2749 21.8439 25.1996 21.8439 25.1996C15.3912 23.5348 13.6642 16.9291 13.6642 16.9291C13.6642 16.9291 13.5867 16.0368 14.1753 15.5564L15.3413 14.6197C15.9194 14.1694 16.2882 13.0769 15.6996 12.0099C15.2482 11.209 14.7574 10.4315 14.229 9.68025C13.7156 8.97171 12.5199 7.52075 12.5154 7.51623C11.9387 6.82877 11.0909 6.66914 10.1969 7.13975C10.1942 7.13975 10.1904 7.14097 10.1869 7.14214C10.1836 7.14322 10.1804 7.14427 10.1782 7.14427C9.28904 7.66206 8.48725 8.31988 7.80309 9.09294C7.80076 9.09765 7.79843 9.09991 7.7961 9.10216C7.79396 9.10423 7.79182 9.1063 7.78968 9.11026C7.23737 9.78391 6.92123 10.4443 6.84126 11.0913C6.82466 11.1867 6.81891 11.2837 6.82413 11.3804C6.82116 11.6662 6.86418 11.9505 6.95153 12.2223L6.98207 12.2433C7.26071 13.2433 7.95806 14.9088 9.47345 17.6858C10.3402 19.292 11.3399 20.8212 12.4618 22.257C13.0238 22.9768 13.6263 23.6634 14.2662 24.3134C14.2893 24.3367 14.3117 24.3601 14.3348 24.3827L14.4033 24.4519L14.4718 24.5212L14.5404 24.5905C15.1835 25.2372 15.8629 25.8461 16.5751 26.4142C17.9959 27.5481 19.5093 28.5585 21.0989 29.4343C23.8458 30.9658 25.4953 31.6706 26.4832 31.9522L26.504 31.9831C26.7729 32.0716 27.0542 32.1154 27.337 32.1126C27.4327 32.1173 27.5287 32.1112 27.6231 32.0945C28.2643 32.0177 28.9172 31.6987 29.5818 31.1375C29.5848 31.1358 29.5867 31.1342 29.5883 31.1325C29.5912 31.1297 29.5932 31.1268 29.5989 31.124C30.3638 30.4323 31.0149 29.622 31.5278 28.7235C31.5278 28.7212 31.5287 28.7177 31.5297 28.7141C31.5306 28.7107 31.5315 28.7073 31.5315 28.7047C31.9971 27.8011 31.8392 26.9442 31.1553 26.3607C31.1544 26.3607 31.0986 26.3142 31.0041 26.2356C30.6165 25.9128 29.5778 25.0479 29.014 24.6289C28.2714 24.0949 27.5028 23.5988 26.7112 23.1425C25.6547 22.5477 24.5759 22.9204 24.1289 23.5047L23.2021 24.6831Z" fill="white"/>
</svg>
