<svg width="29" height="29" viewBox="0 0 29 29" fill="none" xmlns="http://www.w3.org/2000/svg">
<path d="M3.33268 19.3332V3.33317H0.666016V0.666504H4.66602C5.01964 0.666504 5.35878 0.80698 5.60882 1.05703C5.85887 1.30708 5.99935 1.64622 5.99935 1.99984V17.9998H22.5833L25.25 7.33317H8.66602V4.6665H26.9593C27.162 4.66651 27.362 4.71272 27.5442 4.80162C27.7263 4.89052 27.8858 5.01977 28.0105 5.17955C28.1352 5.33933 28.2218 5.52544 28.2637 5.72372C28.3057 5.922 28.3019 6.12724 28.2527 6.32384L24.9193 19.6572C24.8471 19.9455 24.6806 20.2014 24.4463 20.3843C24.212 20.5672 23.9233 20.6665 23.626 20.6665H4.66602C4.31239 20.6665 3.97326 20.526 3.72321 20.276C3.47316 20.0259 3.33268 19.6868 3.33268 19.3332ZM5.99935 28.6665C5.29211 28.6665 4.61383 28.3856 4.11373 27.8855C3.61363 27.3854 3.33268 26.7071 3.33268 25.9998C3.33268 25.2926 3.61363 24.6143 4.11373 24.1142C4.61383 23.6141 5.29211 23.3332 5.99935 23.3332C6.70659 23.3332 7.38487 23.6141 7.88497 24.1142C8.38506 24.6143 8.66602 25.2926 8.66602 25.9998C8.66602 26.7071 8.38506 27.3854 7.88497 27.8855C7.38487 28.3856 6.70659 28.6665 5.99935 28.6665ZM21.9993 28.6665C21.2921 28.6665 20.6138 28.3856 20.1137 27.8855C19.6136 27.3854 19.3327 26.7071 19.3327 25.9998C19.3327 25.2926 19.6136 24.6143 20.1137 24.1142C20.6138 23.6141 21.2921 23.3332 21.9993 23.3332C22.7066 23.3332 23.3849 23.6141 23.885 24.1142C24.3851 24.6143 24.666 25.2926 24.666 25.9998C24.666 26.7071 24.3851 27.3854 23.885 27.8855C23.3849 28.3856 22.7066 28.6665 21.9993 28.6665Z" fill="#070506"/>
</svg>
