<svg width="1920" height="74" viewBox="0 0 1920 74" fill="none" xmlns="http://www.w3.org/2000/svg">
<path d="M-12 46C-22 44 -41.5 53.5 -50 58.5V17L528 12V46C500 47.5 500 64 467.5 67.5C435 71 424.5 46 410.5 47C396.5 48 397.5 72.5 382 72C366.5 71.5 376 50 354.5 46C333 42 330.5 61 300.5 64C270.5 67 280 46 260.5 46C241 46 241.5 65 211.5 67.5C181.5 70 184.5 40.5 161 42C137.5 43.5 134.5 66.5 110.5 69C86.5 71.5 63.5 44.5 47.5 46C31.5 47.5 31.5 71 17 73.5C2.5 76 0.5 48.5 -12 46Z" fill="#FFF2D6"/>
<path d="M2224 46C2234 44 2253.5 53.5 2262 58.5V17L1684 12V46C1712 47.5 1712 64 1744.5 67.5C1777 71 1787.5 46 1801.5 47C1815.5 48 1814.5 72.5 1830 72C1845.5 71.5 1836 50 1857.5 46C1879 42 1881.5 61 1911.5 64C1941.5 67 1932 46 1951.5 46C1971 46 1970.5 65 2000.5 67.5C2030.5 70 2027.5 40.5 2051 42C2074.5 43.5 2077.5 66.5 2101.5 69C2125.5 71.5 2148.5 44.5 2164.5 46C2180.5 47.5 2180.5 71 2195 73.5C2209.5 76 2211.5 48.5 2224 46Z" fill="#FFF2D6"/>
<path d="M566 33.4486C556 31.4811 536.5 40.827 528 45.7459V4.91891L1106 0V33.4486C1078 34.9243 1078 51.1567 1045.5 54.5999C1013 58.0432 1002.5 33.4486 988.5 34.4324C974.5 35.4161 975.5 59.5188 960 59.0269C944.5 58.535 954 37.3837 932.5 33.4486C911 29.5135 908.5 48.2053 878.5 51.1567C848.5 54.108 858 33.4486 838.5 33.4486C819 33.4486 819.5 52.1405 789.5 54.5999C759.5 57.0594 762.5 28.0378 739 29.5135C715.5 30.9891 712.5 53.6161 688.5 56.0756C664.5 58.535 641.5 31.9729 625.5 33.4486C609.5 34.9243 609.5 58.0432 595 60.5026C580.5 62.9621 578.5 35.9081 566 33.4486Z" fill="#FFF2D6"/>
<path d="M1646 33.4486C1656 31.4811 1675.5 40.827 1684 45.7459V4.91891L1106 0V33.4486C1134 34.9243 1134 51.1567 1166.5 54.5999C1199 58.0432 1209.5 33.4486 1223.5 34.4324C1237.5 35.4161 1236.5 59.5188 1252 59.0269C1267.5 58.535 1258 37.3837 1279.5 33.4486C1301 29.5135 1303.5 48.2053 1333.5 51.1567C1363.5 54.108 1354 33.4486 1373.5 33.4486C1393 33.4486 1392.5 52.1405 1422.5 54.5999C1452.5 57.0594 1449.5 28.0378 1473 29.5135C1496.5 30.9891 1499.5 53.6161 1523.5 56.0756C1547.5 58.535 1570.5 31.9729 1586.5 33.4486C1602.5 34.9243 1602.5 58.0432 1617 60.5026C1631.5 62.9621 1633.5 35.9081 1646 33.4486Z" fill="#FFF2D6"/>
</svg>
