<svg width="1920" height="28" viewBox="0 0 1920 28" fill="none" xmlns="http://www.w3.org/2000/svg">
<path d="M1920 28V9.09032C1907.45 9.94578 1894.91 11.0201 1882.35 11.5572C1875.77 11.8358 1869.15 11.1295 1862.54 10.9803C1860.19 10.9306 1857.84 11.3284 1855.48 11.3185C1851.64 11.3086 1847.79 11.0599 1843.94 11.03C1839.28 11.0002 1834.62 11.0499 1829.98 11.1494C1828.05 11.1892 1826 11.9551 1824.24 11.5274C1818.99 10.2343 1814.41 12.0248 1809.45 13.0195C1805.06 13.9048 1799.88 13.2383 1795.53 11.8755C1788.19 9.57774 1781.12 8.10555 1773.62 10.8311C1772.54 11.229 1771.29 11.3583 1770.12 11.3782C1760.12 11.5871 1750.1 11.7263 1740.1 11.9253C1735.77 12.0148 1731.42 12.4823 1727.11 12.2933C1712.08 11.6169 1697.07 10.7316 1682.05 9.92589C1675.65 9.58768 1669.25 9.06048 1662.84 9.01075C1659.93 8.99085 1657.04 10.1248 1654.1 10.3934C1650.66 10.7117 1646.94 12.5818 1643.91 9.20969C1643.51 8.76206 1642.42 8.31444 1642.01 8.52333C1637.98 10.5227 1634.1 10.7913 1629.91 8.71233C1628.16 7.84692 1625.85 8.00607 1622.95 7.5684C1618.84 8.51338 1613.57 9.72694 1608.3 10.9007C1607.82 11.0101 1607.2 10.9405 1606.76 10.7316C1595.63 5.67842 1583.61 7.65792 1571.98 7.08098C1561.86 6.57367 1551.68 7.40924 1541.52 7.61813C1540.49 7.63803 1539.38 7.58829 1538.41 7.26003C1533.56 5.63863 1528.77 3.87797 1523.93 2.26652C1522.68 1.84874 1521.03 1.24196 1520.01 1.66969C1512.08 4.94233 1503.35 3.80834 1495.3 5.64858C1480.41 9.04059 1465.49 4.96222 1450.63 6.98151C1445.94 7.61813 1440.86 5.25069 1435.99 5.37006C1430.29 5.49937 1424.64 7.08098 1418.93 7.5684C1414.09 7.98618 1409.19 7.82702 1404.32 7.79718C1401.83 7.77729 1398.91 6.36478 1397.88 10.0453C1397.83 10.2442 1396.96 10.3636 1396.5 10.3238C1389.53 9.6971 1382.58 8.75212 1375.6 8.51338C1372.26 8.39402 1368.9 9.76673 1365.5 10.1248C1360.35 10.6719 1355.15 11.219 1349.97 11.2489C1337.67 11.3185 1325.37 11.1494 1313.06 10.9206C1310.52 10.8709 1308 10.095 1305.46 9.79658C1304.18 9.64737 1302.85 9.74684 1301.55 9.87615C1300.4 9.98557 1299.23 10.5625 1298.13 10.4332C1294.18 9.97563 1290.62 9.57774 1286.29 10.2343C1279.94 11.1991 1272.71 11.3682 1265.86 9.717C1262.32 8.86154 1258.33 9.77668 1254.54 9.67721C1248.44 9.50811 1242.32 8.84164 1236.23 8.99085C1230.65 9.13011 1225.11 10.5128 1219.54 10.5625C1211.76 10.6321 1203.97 10.0552 1196.18 9.61753C1191.39 9.34895 1186.59 8.91127 1181.82 8.41391C1177.67 7.97623 1173.55 7.25008 1169.4 6.84225C1167.06 6.61346 1164.65 6.87209 1162.29 6.6632C1160.82 6.53388 1159.41 5.93705 1157.95 5.5889C1156.65 5.28053 1155.34 4.77322 1154.03 4.77322C1146.11 4.75333 1138.19 4.81301 1130.27 4.95227C1129.12 4.97217 1127.99 5.7779 1126.82 5.85747C1123.5 6.08626 1120.18 6.14594 1116.85 6.23547C1113.55 6.32499 1110.17 5.98679 1106.97 6.55378C1102.33 7.36945 1097.88 9.21964 1093.22 9.90599C1089.55 10.4531 1085.69 9.99552 1081.93 9.81647C1079.87 9.717 1077.81 8.9809 1075.77 9.04059C1069.55 9.20969 1063.32 9.98557 1057.13 9.82642C1051.41 9.68716 1045.73 8.68249 1040.04 7.97623C1036.27 7.50871 1032.25 10.6819 1028.6 7.24014C1028.23 6.89198 1026.57 7.50871 1025.66 7.94639C1016.37 12.4624 1007.49 9.08037 998.289 7.32966C994.371 6.58362 989.249 5.34022 985.51 9.29921C984.908 9.93584 983.187 9.89605 982.025 9.77668C971.992 8.74217 961.948 6.65325 951.937 6.79251C940.604 6.94172 929.125 3.94761 917.835 7.76734C915.754 8.47359 913.008 7.34956 910.558 7.22024C901.476 6.73283 892.404 6.19568 883.31 5.93705C880.258 5.84753 876.963 5.98679 874.175 7.01135C869.032 8.90133 866.022 5.40985 862.156 3.84813C859.791 2.8932 856.834 1.61001 854.679 2.19689C850.888 3.24135 847.815 3.75861 844.414 1.2917C843.041 0.296972 840.739 0.177606 838.848 0.147764C830.684 0.0383444 822.51 -0.130758 814.357 0.167658C804.419 0.535706 794.301 0.495917 784.67 2.42568C781.311 3.10209 777.815 5.16117 773.982 4.94233C768.522 4.63396 763.093 3.85808 757.633 3.5895C754.38 3.43035 751.085 4.10676 747.832 3.91776C743.693 3.67903 739.595 2.67436 735.455 2.52515C732.065 2.40578 728.189 2.177 725.316 3.49998C716.202 7.72755 707.088 6.6433 697.688 5.13133C692.281 4.25597 686.726 4.18634 680.125 3.65914C677.316 0.237289 666.913 -0.568437 662.171 3.38061C661.432 3.99734 660.587 4.91249 659.763 4.94233C652.962 5.20096 646.15 5.18106 639.359 5.49937C637.627 5.57895 635.938 6.54383 634.248 7.13072C632.368 7.78724 630.53 8.97095 628.619 9.07043C619.452 9.54789 610.063 8.71233 601.128 10.284C590.746 12.1043 581.146 10.1746 571.229 8.49349C564.882 7.41919 558.324 6.48415 552.557 10.8709C551.66 11.5572 549.917 11.3284 548.565 11.3981C544.214 11.607 539.853 11.7462 535.501 11.9153C534.794 11.9452 534.044 12.1043 533.4 11.9153C521.265 8.39402 508.169 10.4531 496.14 6.24541C494.556 5.68837 492.56 5.52921 490.923 5.88731C479.675 8.32439 468.385 6.58362 457.222 5.73811C451.561 5.31038 446.07 4.29576 440.493 5.69832C437.895 6.34489 435.382 7.70766 432.773 7.86681C427.736 8.16523 422.666 7.86681 417.608 7.76734C415.918 7.72755 414.196 7.24014 412.538 7.41919C408.177 7.87676 403.688 8.08565 399.537 9.27932C389.652 12.1242 380.263 8.11549 370.653 8.12544C363.873 8.12544 357.103 9.59763 350.302 9.80652C343.68 10.0154 336.984 8.91127 330.394 9.36884C324.047 9.80652 317.013 7.9066 311.542 13.0394C310.782 13.7556 308.944 13.6263 307.614 13.5964C294.201 13.3378 280.788 13.0991 267.386 12.6813C261.704 12.5022 256.033 11.8656 250.351 11.4976C242.261 10.9703 234.15 10.6122 226.082 9.93584C224.223 9.77668 222.47 8.59296 220.981 7.09093C210.567 5.17111 200.154 3.26125 188.326 1.0828C189.572 3.71882 190.026 4.66381 190.607 5.88731C188.009 5.38001 185.654 4.81301 183.267 4.47481C179.201 3.89787 175.135 3.33088 171.037 3.01257C165.123 2.55499 159.177 2.06758 153.252 2.05763C148.32 2.04768 143.367 3.17172 138.456 2.94294C123.903 2.26652 109.381 0.824175 94.8176 0.436234C89.2837 0.287025 83.7179 2.46547 78.0994 3.10209C74.593 3.49998 70.5905 3.89787 67.4961 2.7042C62.2894 0.694861 57.7692 0.356656 53.0378 3.34082C52.119 3.91776 50.4398 4.6837 49.8695 4.3256C43.1526 -0.0312862 35.4958 1.05296 28.1559 1.11265C23.0232 1.15243 17.9221 2.7042 12.7683 3.12199C8.54382 3.47014 4.2561 3.15183 0 3.13193V28H1920Z" fill="#FFF2D6"/>
</svg>
