<svg width="1920" height="28" viewBox="0 0 1920 28" fill="none" xmlns="http://www.w3.org/2000/svg">
<path d="M0 28V9.09032C12.5466 9.94578 25.0932 11.0201 37.6504 11.5572C44.2299 11.8358 50.8518 11.1295 57.463 10.9803C59.8076 10.9306 62.1627 11.3284 64.5178 11.3185C68.3621 11.3086 72.2063 11.0599 76.0611 11.03C80.7186 11.0002 85.376 11.0499 90.0229 11.1494C91.9451 11.1892 94.0045 11.9551 95.7576 11.5274C101.007 10.2343 105.59 12.0248 110.554 13.0195C114.937 13.9048 120.122 13.2383 124.473 11.8755C131.813 9.57774 138.879 8.10555 146.377 10.8311C147.465 11.229 148.711 11.3583 149.883 11.3782C159.885 11.5871 169.897 11.7263 179.898 11.9253C184.228 12.0148 188.579 12.4823 192.888 12.2933C207.917 11.6169 222.935 10.7316 237.952 9.92589C244.353 9.58768 250.753 9.06048 257.163 9.01075C260.067 8.99085 262.961 10.1248 265.897 10.3934C269.34 10.7117 273.058 12.5818 276.089 9.20969C276.49 8.76206 277.578 8.31444 277.99 8.52333C282.024 10.5227 285.9 10.7913 290.093 8.71233C291.835 7.84692 294.148 8.00607 297.052 7.5684C301.161 8.51338 306.431 9.72694 311.701 10.9007C312.176 11.0101 312.799 10.9405 313.243 10.7316C324.374 5.67842 336.393 7.65792 348.02 7.08098C358.138 6.57367 368.319 7.40924 378.479 7.61813C379.514 7.63803 380.623 7.58829 381.594 7.26003C386.442 5.63863 391.226 3.87797 396.073 2.26652C397.32 1.84874 398.967 1.24196 399.992 1.66969C407.923 4.94233 416.647 3.80834 424.705 5.64858C439.585 9.04059 454.508 4.96222 469.368 6.98151C474.057 7.61813 479.137 5.25069 484.005 5.37006C489.708 5.49937 495.359 7.08098 501.072 7.5684C505.909 7.98618 510.809 7.82702 515.678 7.79718C518.171 7.77729 521.085 6.36478 522.12 10.0453C522.173 10.2442 523.039 10.3636 523.504 10.3238C530.474 9.6971 537.423 8.75212 544.404 8.51338C547.742 8.39402 551.1 9.76673 554.501 10.1248C559.655 10.6719 564.851 11.219 570.026 11.2489C582.329 11.3185 594.633 11.1494 606.937 10.9206C609.482 10.8709 611.995 10.095 614.541 9.79658C615.819 9.64737 617.149 9.74684 618.448 9.87615C619.599 9.98557 620.772 10.5625 621.87 10.4332C625.82 9.97563 629.379 9.57774 633.709 10.2343C640.056 11.1991 647.291 11.3682 654.145 9.717C657.683 8.86154 661.675 9.77668 665.456 9.67721C671.56 9.50811 677.675 8.84164 683.769 8.99085C689.345 9.13011 694.89 10.5128 700.455 10.5625C708.239 10.6321 716.033 10.0552 723.817 9.61753C728.611 9.34895 733.406 8.91127 738.18 8.41391C742.33 7.97623 746.449 7.25008 750.599 6.84225C752.944 6.61346 755.352 6.87209 757.707 6.6632C759.175 6.53388 760.59 5.93705 762.048 5.5889C763.347 5.28053 764.656 4.77322 765.966 4.77322C773.887 4.75333 781.808 4.81301 789.728 4.95227C790.88 4.97217 792.01 5.7779 793.182 5.85747C796.498 6.08626 799.825 6.14594 803.152 6.23547C806.447 6.32499 809.826 5.98679 813.026 6.55378C817.673 7.36945 822.119 9.21964 826.777 9.90599C830.452 10.4531 834.307 9.99552 838.067 9.81647C840.126 9.717 842.186 8.9809 844.234 9.04059C850.455 9.20969 856.675 9.98557 862.875 9.82642C868.588 9.68716 874.27 8.68249 879.963 7.97623C883.733 7.50871 887.746 10.6819 891.4 7.24014C891.77 6.89198 893.428 7.50871 894.336 7.94639C903.63 12.4624 912.512 9.08037 921.711 7.32966C925.629 6.58362 930.751 5.34022 934.49 9.29921C935.092 9.93584 936.813 9.89605 937.975 9.77668C948.008 8.74217 958.052 6.65325 968.063 6.79251C979.396 6.94172 990.875 3.94761 1002.17 7.76734C1004.25 8.47359 1006.99 7.34956 1009.44 7.22024C1018.52 6.73283 1027.6 6.19568 1036.69 5.93705C1039.74 5.84753 1043.04 5.98679 1045.82 7.01135C1050.97 8.90133 1053.98 5.40985 1057.84 3.84813C1060.21 2.8932 1063.17 1.61001 1065.32 2.19689C1069.11 3.24135 1072.19 3.75861 1075.59 1.2917C1076.96 0.296972 1079.26 0.177606 1081.15 0.147764C1089.32 0.0383444 1097.49 -0.130758 1105.64 0.167658C1115.58 0.535706 1125.7 0.495917 1135.33 2.42568C1138.69 3.10209 1142.18 5.16117 1146.02 4.94233C1151.48 4.63396 1156.91 3.85808 1162.37 3.5895C1165.62 3.43035 1168.91 4.10676 1172.17 3.91776C1176.31 3.67903 1180.41 2.67436 1184.55 2.52515C1187.94 2.40578 1191.81 2.177 1194.68 3.49998C1203.8 7.72755 1212.91 6.6433 1222.31 5.13133C1227.72 4.25597 1233.27 4.18634 1239.87 3.65914C1242.68 0.237289 1253.09 -0.568437 1257.83 3.38061C1258.57 3.99734 1259.41 4.91249 1260.24 4.94233C1267.04 5.20096 1273.85 5.18106 1280.64 5.49937C1282.37 5.57895 1284.06 6.54383 1285.75 7.13072C1287.63 7.78724 1289.47 8.97095 1291.38 9.07043C1300.55 9.54789 1309.94 8.71233 1318.87 10.284C1329.25 12.1043 1338.85 10.1746 1348.77 8.49349C1355.12 7.41919 1361.68 6.48415 1367.44 10.8709C1368.34 11.5572 1370.08 11.3284 1371.43 11.3981C1375.79 11.607 1380.15 11.7462 1384.5 11.9153C1385.21 11.9452 1385.96 12.1043 1386.6 11.9153C1398.74 8.39402 1411.83 10.4531 1423.86 6.24541C1425.44 5.68837 1427.44 5.52921 1429.08 5.88731C1440.32 8.32439 1451.61 6.58362 1462.78 5.73811C1468.44 5.31038 1473.93 4.29576 1479.51 5.69832C1482.1 6.34489 1484.62 7.70766 1487.23 7.86681C1492.26 8.16523 1497.33 7.86681 1502.39 7.76734C1504.08 7.72755 1505.8 7.24014 1507.46 7.41919C1511.82 7.87676 1516.31 8.08565 1520.46 9.27932C1530.35 12.1242 1539.74 8.11549 1549.35 8.12544C1556.13 8.12544 1562.9 9.59763 1569.7 9.80652C1576.32 10.0154 1583.02 8.91127 1589.61 9.36884C1595.95 9.80652 1602.99 7.9066 1608.46 13.0394C1609.22 13.7556 1611.06 13.6263 1612.39 13.5964C1625.8 13.3378 1639.21 13.0991 1652.61 12.6813C1658.3 12.5022 1663.97 11.8656 1669.65 11.4976C1677.74 10.9703 1685.85 10.6122 1693.92 9.93584C1695.78 9.77668 1697.53 8.59296 1699.02 7.09093C1709.43 5.17111 1719.85 3.26125 1731.67 1.0828C1730.43 3.71882 1729.97 4.66381 1729.39 5.88731C1731.99 5.38001 1734.35 4.81301 1736.73 4.47481C1740.8 3.89787 1744.87 3.33088 1748.96 3.01257C1754.88 2.55499 1760.82 2.06758 1766.75 2.05763C1771.68 2.04768 1776.63 3.17172 1781.54 2.94294C1796.1 2.26652 1810.62 0.824175 1825.18 0.436234C1830.72 0.287025 1836.28 2.46547 1841.9 3.10209C1845.41 3.49998 1849.41 3.89787 1852.5 2.7042C1857.71 0.694861 1862.23 0.356656 1866.96 3.34082C1867.88 3.91776 1869.56 4.6837 1870.13 4.3256C1876.85 -0.0312862 1884.5 1.05296 1891.84 1.11265C1896.98 1.15243 1902.08 2.7042 1907.23 3.12199C1911.46 3.47014 1915.74 3.15183 1920 3.13193V28H0Z" fill="#1B3B2A"/>
</svg>
